<svg width="202" height="42" viewBox="0 0 202 42" fill="none" xmlns="http://www.w3.org/2000/svg">
<path d="M189.462 20H201.308V30.1538C201.308 36.6963 196.004 42 189.462 42V42V20Z" fill="url(#paint0_linear_605_268)"/>
<path d="M115 42L201.308 31.8461V31.8461C201.308 37.4539 196.762 42 191.154 42H115Z" fill="#539BF5"/>
<path d="M12.252 18.877H5.73047V14.7637H12.252C13.2598 14.7637 14.0801 14.5996 14.7129 14.2715C15.3457 13.9316 15.8086 13.4629 16.1016 12.8652C16.3945 12.2676 16.541 11.5938 16.541 10.8438C16.541 10.082 16.3945 9.37305 16.1016 8.7168C15.8086 8.06055 15.3457 7.5332 14.7129 7.13477C14.0801 6.73633 13.2598 6.53711 12.252 6.53711H7.55859V28H2.28516V2.40625H12.252C14.2559 2.40625 15.9727 2.76953 17.4023 3.49609C18.8438 4.21094 19.9453 5.20117 20.707 6.4668C21.4688 7.73242 21.8496 9.17969 21.8496 10.8086C21.8496 12.4609 21.4688 13.8906 20.707 15.0977C19.9453 16.3047 18.8438 17.2363 17.4023 17.8926C15.9727 18.5488 14.2559 18.877 12.252 18.877ZM24.1172 18.6836V18.3145C24.1172 16.9199 24.3164 15.6367 24.7148 14.4648C25.1133 13.2812 25.6934 12.2559 26.4551 11.3887C27.2168 10.5215 28.1543 9.84766 29.2676 9.36719C30.3809 8.875 31.6582 8.62891 33.0996 8.62891C34.541 8.62891 35.8242 8.875 36.9492 9.36719C38.0742 9.84766 39.0176 10.5215 39.7793 11.3887C40.5527 12.2559 41.1387 13.2812 41.5371 14.4648C41.9355 15.6367 42.1348 16.9199 42.1348 18.3145V18.6836C42.1348 20.0664 41.9355 21.3496 41.5371 22.5332C41.1387 23.7051 40.5527 24.7305 39.7793 25.6094C39.0176 26.4766 38.0801 27.1504 36.9668 27.6309C35.8535 28.1113 34.5762 28.3516 33.1348 28.3516C31.6934 28.3516 30.4102 28.1113 29.2852 27.6309C28.1719 27.1504 27.2285 26.4766 26.4551 25.6094C25.6934 24.7305 25.1133 23.7051 24.7148 22.5332C24.3164 21.3496 24.1172 20.0664 24.1172 18.6836ZM29.1797 18.3145V18.6836C29.1797 19.4805 29.25 20.2246 29.3906 20.916C29.5312 21.6074 29.7539 22.2168 30.0586 22.7441C30.375 23.2598 30.7852 23.6641 31.2891 23.957C31.793 24.25 32.4082 24.3965 33.1348 24.3965C33.8379 24.3965 34.4414 24.25 34.9453 23.957C35.4492 23.6641 35.8535 23.2598 36.1582 22.7441C36.4629 22.2168 36.6855 21.6074 36.8262 20.916C36.9785 20.2246 37.0547 19.4805 37.0547 18.6836V18.3145C37.0547 17.541 36.9785 16.8145 36.8262 16.1348C36.6855 15.4434 36.457 14.834 36.1406 14.3066C35.8359 13.7676 35.4316 13.3457 34.9277 13.041C34.4238 12.7363 33.8145 12.584 33.0996 12.584C32.3848 12.584 31.7754 12.7363 31.2715 13.041C30.7793 13.3457 30.375 13.7676 30.0586 14.3066C29.7539 14.834 29.5312 15.4434 29.3906 16.1348C29.25 16.8145 29.1797 17.541 29.1797 18.3145ZM50.3086 12.918V28H45.2285V8.98047H49.9922L50.3086 12.918ZM49.6055 17.8223H48.1992C48.1992 16.498 48.3574 15.2793 48.6738 14.166C49.002 13.041 49.4766 12.0684 50.0977 11.248C50.7305 10.416 51.5098 9.77148 52.4355 9.31445C53.3613 8.85742 54.4336 8.62891 55.6523 8.62891C56.4961 8.62891 57.2695 8.75781 57.9727 9.01562C58.6758 9.26172 59.2793 9.6543 59.7832 10.1934C60.2988 10.7207 60.6973 11.4121 60.9785 12.2676C61.2598 13.1113 61.4004 14.125 61.4004 15.3086V28H56.3379V15.8711C56.3379 15.0039 56.2207 14.3359 55.9863 13.8672C55.752 13.3984 55.418 13.0703 54.9844 12.8828C54.5625 12.6953 54.0527 12.6016 53.4551 12.6016C52.7988 12.6016 52.2246 12.7363 51.7324 13.0059C51.252 13.2754 50.8535 13.6504 50.5371 14.1309C50.2207 14.5996 49.9863 15.1504 49.834 15.7832C49.6816 16.416 49.6055 17.0957 49.6055 17.8223ZM60.9258 17.2422L59.1152 17.4707C59.1152 16.2285 59.2676 15.0742 59.5723 14.0078C59.8887 12.9414 60.3516 12.0039 60.9609 11.1953C61.582 10.3867 62.3496 9.75977 63.2637 9.31445C64.1777 8.85742 65.2324 8.62891 66.4277 8.62891C67.3418 8.62891 68.1738 8.76367 68.9238 9.0332C69.6738 9.29102 70.3125 9.70703 70.8398 10.2812C71.3789 10.8438 71.7891 11.582 72.0703 12.4961C72.3633 13.4102 72.5098 14.5293 72.5098 15.8535V28H67.4297V15.8535C67.4297 14.9746 67.3125 14.3066 67.0781 13.8496C66.8555 13.3809 66.5273 13.0586 66.0938 12.8828C65.6719 12.6953 65.168 12.6016 64.582 12.6016C63.9727 12.6016 63.4395 12.7246 62.9824 12.9707C62.5254 13.2051 62.1445 13.5332 61.8398 13.9551C61.5352 14.377 61.3066 14.8691 61.1543 15.4316C61.002 15.9824 60.9258 16.5859 60.9258 17.2422ZM75.6211 18.6836V18.3145C75.6211 16.9199 75.8203 15.6367 76.2188 14.4648C76.6172 13.2812 77.1973 12.2559 77.959 11.3887C78.7207 10.5215 79.6582 9.84766 80.7715 9.36719C81.8848 8.875 83.1621 8.62891 84.6035 8.62891C86.0449 8.62891 87.3281 8.875 88.4531 9.36719C89.5781 9.84766 90.5215 10.5215 91.2832 11.3887C92.0566 12.2559 92.6426 13.2812 93.041 14.4648C93.4395 15.6367 93.6387 16.9199 93.6387 18.3145V18.6836C93.6387 20.0664 93.4395 21.3496 93.041 22.5332C92.6426 23.7051 92.0566 24.7305 91.2832 25.6094C90.5215 26.4766 89.584 27.1504 88.4707 27.6309C87.3574 28.1113 86.0801 28.3516 84.6387 28.3516C83.1973 28.3516 81.9141 28.1113 80.7891 27.6309C79.6758 27.1504 78.7324 26.4766 77.959 25.6094C77.1973 24.7305 76.6172 23.7051 76.2188 22.5332C75.8203 21.3496 75.6211 20.0664 75.6211 18.6836ZM80.6836 18.3145V18.6836C80.6836 19.4805 80.7539 20.2246 80.8945 20.916C81.0352 21.6074 81.2578 22.2168 81.5625 22.7441C81.8789 23.2598 82.2891 23.6641 82.793 23.957C83.2969 24.25 83.9121 24.3965 84.6387 24.3965C85.3418 24.3965 85.9453 24.25 86.4492 23.957C86.9531 23.6641 87.3574 23.2598 87.6621 22.7441C87.9668 22.2168 88.1895 21.6074 88.3301 20.916C88.4824 20.2246 88.5586 19.4805 88.5586 18.6836V18.3145C88.5586 17.541 88.4824 16.8145 88.3301 16.1348C88.1895 15.4434 87.9609 14.834 87.6445 14.3066C87.3398 13.7676 86.9355 13.3457 86.4316 13.041C85.9277 12.7363 85.3184 12.584 84.6035 12.584C83.8887 12.584 83.2793 12.7363 82.7754 13.041C82.2832 13.3457 81.8789 13.7676 81.5625 14.3066C81.2578 14.834 81.0352 15.4434 80.8945 16.1348C80.7539 16.8145 80.6836 17.541 80.6836 18.3145ZM108.51 2.40625V28H103.254V2.40625H108.51ZM116.385 2.40625V6.53711H95.502V2.40625H116.385ZM124.418 8.98047V28H119.338V8.98047H124.418ZM119.021 4.02344C119.021 3.28516 119.279 2.67578 119.795 2.19531C120.311 1.71484 121.002 1.47461 121.869 1.47461C122.725 1.47461 123.41 1.71484 123.926 2.19531C124.453 2.67578 124.717 3.28516 124.717 4.02344C124.717 4.76172 124.453 5.37109 123.926 5.85156C123.41 6.33203 122.725 6.57227 121.869 6.57227C121.002 6.57227 120.311 6.33203 119.795 5.85156C119.279 5.37109 119.021 4.76172 119.021 4.02344ZM133.664 12.918V28H128.584V8.98047H133.348L133.664 12.918ZM132.961 17.8223H131.555C131.555 16.498 131.713 15.2793 132.029 14.166C132.357 13.041 132.832 12.0684 133.453 11.248C134.086 10.416 134.865 9.77148 135.791 9.31445C136.717 8.85742 137.789 8.62891 139.008 8.62891C139.852 8.62891 140.625 8.75781 141.328 9.01562C142.031 9.26172 142.635 9.6543 143.139 10.1934C143.654 10.7207 144.053 11.4121 144.334 12.2676C144.615 13.1113 144.756 14.125 144.756 15.3086V28H139.693V15.8711C139.693 15.0039 139.576 14.3359 139.342 13.8672C139.107 13.3984 138.773 13.0703 138.34 12.8828C137.918 12.6953 137.408 12.6016 136.811 12.6016C136.154 12.6016 135.58 12.7363 135.088 13.0059C134.607 13.2754 134.209 13.6504 133.893 14.1309C133.576 14.5996 133.342 15.1504 133.189 15.7832C133.037 16.416 132.961 17.0957 132.961 17.8223ZM144.281 17.2422L142.471 17.4707C142.471 16.2285 142.623 15.0742 142.928 14.0078C143.244 12.9414 143.707 12.0039 144.316 11.1953C144.938 10.3867 145.705 9.75977 146.619 9.31445C147.533 8.85742 148.588 8.62891 149.783 8.62891C150.697 8.62891 151.529 8.76367 152.279 9.0332C153.029 9.29102 153.668 9.70703 154.195 10.2812C154.734 10.8438 155.145 11.582 155.426 12.4961C155.719 13.4102 155.865 14.5293 155.865 15.8535V28H150.785V15.8535C150.785 14.9746 150.668 14.3066 150.434 13.8496C150.211 13.3809 149.883 13.0586 149.449 12.8828C149.027 12.6953 148.523 12.6016 147.938 12.6016C147.328 12.6016 146.795 12.7246 146.338 12.9707C145.881 13.2051 145.5 13.5332 145.195 13.9551C144.891 14.377 144.662 14.8691 144.51 15.4316C144.357 15.9824 144.281 16.5859 144.281 17.2422ZM168.539 28.3516C167.062 28.3516 165.738 28.1172 164.566 27.6484C163.395 27.168 162.398 26.5059 161.578 25.6621C160.77 24.8184 160.148 23.8398 159.715 22.7266C159.281 21.6016 159.064 20.4062 159.064 19.1406V18.4375C159.064 16.9961 159.27 15.6777 159.68 14.4824C160.09 13.2871 160.676 12.25 161.438 11.3711C162.211 10.4922 163.148 9.81836 164.25 9.34961C165.352 8.86914 166.594 8.62891 167.977 8.62891C169.324 8.62891 170.52 8.85156 171.562 9.29688C172.605 9.74219 173.479 10.375 174.182 11.1953C174.896 12.0156 175.436 13 175.799 14.1484C176.162 15.2852 176.344 16.5508 176.344 17.9453V20.0547H161.227V16.6797H171.369V16.293C171.369 15.5898 171.24 14.9629 170.982 14.4121C170.736 13.8496 170.361 13.4043 169.857 13.0762C169.354 12.748 168.709 12.584 167.924 12.584C167.256 12.584 166.682 12.7305 166.201 13.0234C165.721 13.3164 165.328 13.7266 165.023 14.2539C164.73 14.7812 164.508 15.4023 164.355 16.1172C164.215 16.8203 164.145 17.5938 164.145 18.4375V19.1406C164.145 19.9023 164.25 20.6055 164.461 21.25C164.684 21.8945 164.994 22.4512 165.393 22.9199C165.803 23.3887 166.295 23.752 166.869 24.0098C167.455 24.2676 168.117 24.3965 168.855 24.3965C169.77 24.3965 170.619 24.2207 171.404 23.8691C172.201 23.5059 172.887 22.9609 173.461 22.2344L175.922 24.9062C175.523 25.4805 174.979 26.0312 174.287 26.5586C173.607 27.0859 172.787 27.5195 171.826 27.8594C170.865 28.1875 169.77 28.3516 168.539 28.3516ZM184.289 13.1289V28H179.227V8.98047H183.99L184.289 13.1289ZM190.02 8.85742L189.932 13.5508C189.686 13.5156 189.387 13.4863 189.035 13.4629C188.695 13.4277 188.385 13.4102 188.104 13.4102C187.389 13.4102 186.768 13.5039 186.24 13.6914C185.725 13.8672 185.291 14.1309 184.939 14.4824C184.6 14.834 184.342 15.2617 184.166 15.7656C184.002 16.2695 183.908 16.8438 183.885 17.4883L182.865 17.1719C182.865 15.9414 182.988 14.8105 183.234 13.7793C183.48 12.7363 183.838 11.8281 184.307 11.0547C184.787 10.2812 185.373 9.68359 186.064 9.26172C186.756 8.83984 187.547 8.62891 188.438 8.62891C188.719 8.62891 189.006 8.65234 189.299 8.69922C189.592 8.73438 189.832 8.78711 190.02 8.85742Z" fill="white"/>
<defs>
<linearGradient id="paint0_linear_605_268" x1="190.308" y1="21.6923" x2="199.615" y2="33.5385" gradientUnits="userSpaceOnUse">
<stop stop-color="#004B87"/>
<stop offset="0.905" stop-color="#001221"/>
</linearGradient>
</defs>
</svg>
